<svg style="fill-rule:evenodd;clip-rule:evenodd;stroke-linejoin:round;stroke-miterlimit:2;" xml:space="preserve" xmlns:xlink="http://www.w3.org/1999/xlink" xmlns="http://www.w3.org/2000/svg" version="1.1" viewBox="0 0 150 90" height="90px" width="150px">
    <g>
        <g>
            <path style="fill:rgb(27,42,48);fill-rule:nonzero;" d="M31.192,23.295C31.145,23.151 31.288,22.782 31.622,22.185C31.956,21.589 32.325,20.849 32.731,19.967C33.137,19.084 33.542,18.082 33.948,16.961C34.353,15.839 34.64,14.682 34.807,13.489C34.973,12.297 34.962,11.104 34.771,9.911C34.58,8.718 34.079,7.573 33.268,6.476C32.791,5.903 32.087,5.581 31.156,5.509C30.226,5.438 29.176,5.581 28.007,5.939C26.838,6.297 25.622,6.845 24.357,7.585C23.093,8.325 21.936,9.183 20.886,10.161C19.836,11.14 18.942,12.225 18.202,13.418C17.463,14.611 17.045,15.827 16.95,17.068C16.854,18.07 16.89,19 17.057,19.859C17.224,20.718 17.451,21.505 17.737,22.221C18.023,22.937 18.334,23.605 18.668,24.225C19.001,24.845 19.312,25.394 19.598,25.871C19.98,26.539 20.576,27.279 21.387,28.09C22.198,28.901 23.081,29.819 24.035,30.845C24.99,31.871 25.944,33.028 26.898,34.316C27.852,35.605 28.687,37.06 29.403,38.682C30.119,40.304 30.62,42.117 30.906,44.121C31.192,46.125 31.168,48.344 30.834,50.777C30.31,54.308 29.475,57.254 28.329,59.616C27.184,61.978 25.932,63.875 24.572,65.306C23.212,66.737 21.84,67.775 20.457,68.419C19.073,69.063 17.928,69.481 17.021,69.672C16.306,69.815 15.459,69.946 14.481,70.065C13.503,70.185 12.477,70.161 11.403,69.994C10.33,69.827 9.244,69.493 8.147,68.992C7.049,68.491 6.071,67.716 5.212,66.666C4.21,65.473 3.423,64.185 2.851,62.801C2.326,61.608 1.932,60.237 1.67,58.686C1.407,57.135 1.538,55.525 2.063,53.855C2.445,53.425 2.851,53.044 3.28,52.71C3.709,52.376 4.139,52.089 4.568,51.851C5.045,51.565 5.546,51.302 6.071,51.064C6.691,50.873 7.312,50.706 7.932,50.563C8.457,50.467 9.018,50.408 9.614,50.384C10.21,50.36 10.771,50.443 11.296,50.634C10.58,51.445 10.079,52.209 9.793,52.924C9.602,53.306 9.459,53.64 9.363,53.926C9.173,54.833 9.113,55.918 9.185,57.183C9.256,58.447 9.518,59.664 9.972,60.833C10.425,62.002 11.081,63.004 11.94,63.839C12.799,64.674 13.944,65.115 15.375,65.163C18.858,65.258 21.817,62.539 24.25,57.004C25.061,55.286 25.479,53.545 25.502,51.779C25.526,50.014 25.312,48.32 24.858,46.698C24.405,45.076 23.809,43.561 23.069,42.153C22.329,40.746 21.578,39.541 20.815,38.539C20.051,37.537 19.133,36.451 18.059,35.282C16.986,34.114 15.924,32.837 14.874,31.454C13.825,30.07 12.882,28.567 12.047,26.945C11.212,25.322 10.652,23.557 10.365,21.648C9.984,18.976 10.234,16.531 11.117,14.313C12,12.094 13.192,10.15 14.695,8.48C16.198,6.81 17.844,5.45 19.634,4.4C21.423,3.35 23.009,2.682 24.393,2.396C32.075,0.869 37.109,2.158 39.494,6.261C40.496,7.835 41.045,9.505 41.14,11.271C41.236,13.036 41.129,14.67 40.818,16.173C40.508,17.676 40.127,18.941 39.673,19.967C39.22,20.992 38.922,21.553 38.779,21.648C38.492,21.935 38.039,22.245 37.419,22.579C36.799,22.913 35.797,23.223 34.413,23.509C34.031,23.605 33.649,23.652 33.268,23.652C32.934,23.652 32.576,23.629 32.194,23.581C31.812,23.533 31.479,23.438 31.192,23.295Z"></path>
            <path style="fill:rgb(27,42,48);fill-rule:nonzero;" d="M76.639,40.4C76.973,40.018 77.319,39.815 77.677,39.791C78.035,39.768 78.321,39.863 78.536,40.078C78.75,40.292 78.846,40.614 78.822,41.044C78.798,41.473 78.595,41.95 78.214,42.475C77.307,43.716 76.257,44.992 75.065,46.304C73.872,47.616 72.595,48.893 71.236,50.133C69.876,51.374 68.504,52.543 67.12,53.64C65.737,54.738 64.401,55.644 63.112,56.36C61.681,57.171 60.476,57.576 59.498,57.576C58.52,57.576 57.554,56.956 56.6,55.716C55.741,54.618 55.323,53.437 55.347,52.173C55.371,50.909 55.645,49.322 56.17,47.414C56.504,46.221 56.969,44.801 57.566,43.155C58.162,41.509 58.639,39.923 58.997,38.396C59.355,36.869 59.462,35.569 59.319,34.495C59.176,33.422 58.556,32.885 57.458,32.885C56.695,32.885 55.872,33.147 54.989,33.672C54.107,34.197 53.224,34.877 52.341,35.712C51.458,36.547 50.612,37.489 49.8,38.539C48.989,39.589 48.274,40.614 47.653,41.616C47.272,43.477 46.89,45.314 46.508,47.127C46.174,48.654 45.828,50.312 45.47,52.101C45.113,53.891 44.767,55.477 44.433,56.861C44.146,57.099 43.836,57.266 43.502,57.362C43.168,57.457 42.858,57.505 42.572,57.505C42.238,57.505 41.904,57.481 41.57,57.433C41.188,57.338 40.83,57.195 40.496,57.004C40.21,56.813 39.924,56.563 39.637,56.252C39.351,55.942 39.136,55.525 38.993,55C41.14,46.173 42.834,39.088 44.075,33.744C45.315,28.4 46.27,24.32 46.938,21.505C47.701,18.165 48.226,15.851 48.512,14.563C48.655,13.656 48.775,12.774 48.87,11.915C48.965,11.152 49.013,10.364 49.013,9.553C49.013,8.742 48.942,8.002 48.798,7.334C49.18,7.096 49.598,6.905 50.051,6.762C50.504,6.619 50.946,6.499 51.375,6.404C51.9,6.261 52.425,6.142 52.949,6.046C53.474,5.951 53.951,5.903 54.381,5.903C54.763,5.903 55.12,5.939 55.454,6.01C55.788,6.082 56.003,6.237 56.099,6.476C56.385,6.714 56.516,7.191 56.492,7.907C56.468,8.623 56.409,9.362 56.313,10.126C56.122,11.032 55.908,12.01 55.669,13.06C54.667,16.925 53.546,20.682 52.305,24.332C51.065,27.982 49.92,31.883 48.87,36.034C49.49,35.08 50.23,34.102 51.089,33.1C51.947,32.098 52.89,31.179 53.916,30.344C54.941,29.509 56.027,28.817 57.172,28.269C58.317,27.72 59.534,27.446 60.822,27.446C61.49,27.446 62.122,27.553 62.719,27.768C63.315,27.982 63.84,28.34 64.293,28.841C64.747,29.342 65.092,30.01 65.331,30.845C65.57,31.68 65.665,32.718 65.617,33.958C65.617,34.722 65.534,35.509 65.367,36.32C65.2,37.131 64.973,38.026 64.687,39.004C64.401,39.982 64.031,41.068 63.578,42.261C63.124,43.453 62.588,44.837 61.967,46.412C61.538,47.509 61.204,48.439 60.965,49.203C60.727,49.966 60.774,50.634 61.108,51.207C61.538,51.97 62.385,52.149 63.649,51.744C64.914,51.338 66.81,50.109 69.339,48.058C69.912,47.581 70.556,46.984 71.271,46.268C71.987,45.553 72.679,44.825 73.347,44.086C74.015,43.346 74.635,42.642 75.208,41.974C75.78,41.306 76.257,40.781 76.639,40.4Z"></path>
            <path style="fill:rgb(27,42,48);fill-rule:nonzero;" d="M95.033,44.765C94.555,46.579 93.911,48.272 93.1,49.847C92.289,51.421 91.323,52.781 90.202,53.926C89.08,55.072 87.816,55.966 86.408,56.61C85.001,57.254 83.462,57.576 81.792,57.576C79.836,57.576 78.297,57.159 77.176,56.324C76.055,55.489 75.22,54.451 74.671,53.211C74.122,51.97 73.788,50.61 73.669,49.131C73.55,47.652 73.49,46.268 73.49,44.98C73.49,44.074 73.597,43.072 73.812,41.974C74.027,40.877 74.325,39.756 74.707,38.61C75.088,37.465 75.577,36.32 76.174,35.175C76.77,34.03 77.474,32.98 78.285,32.026C78.571,31.215 79.013,30.499 79.609,29.879C80.206,29.259 80.897,28.746 81.685,28.34C82.472,27.935 83.319,27.625 84.225,27.41C85.132,27.195 86.015,27.088 86.874,27.088C87.017,27.088 87.148,27.112 87.267,27.159C87.386,27.207 87.518,27.255 87.661,27.302C88.281,27.35 89.056,27.589 89.987,28.018C90.917,28.448 91.824,29.092 92.707,29.951C93.589,30.809 94.341,31.895 94.961,33.207C95.581,34.519 95.891,36.106 95.891,37.966C95.891,38.348 95.868,38.813 95.82,39.362C95.772,39.911 95.724,40.376 95.677,40.758C96.774,40.328 97.919,39.803 99.112,39.183C100.305,38.563 101.462,37.907 102.583,37.215C103.704,36.523 104.742,35.819 105.696,35.104C106.651,34.388 107.414,33.744 107.987,33.171C108.464,32.742 108.869,32.503 109.203,32.455C109.537,32.408 109.776,32.503 109.919,32.742C110.062,32.98 110.086,33.314 109.991,33.744C109.895,34.173 109.633,34.65 109.203,35.175C108.965,35.461 108.356,36.034 107.378,36.893C106.4,37.752 105.243,38.682 103.907,39.684C102.571,40.686 101.116,41.664 99.541,42.618C97.967,43.573 96.464,44.288 95.033,44.765ZM82.937,33.887C82.794,34.316 82.723,34.77 82.723,35.247C82.723,36.01 82.77,36.809 82.866,37.644C82.961,38.479 83.2,39.231 83.581,39.899C83.963,40.567 84.571,41.127 85.406,41.581C86.241,42.034 87.398,42.261 88.878,42.261C89.116,42.261 89.355,42.249 89.593,42.225C89.832,42.201 90.07,42.165 90.309,42.117C90.452,41.497 90.583,40.937 90.703,40.436C90.822,39.935 90.881,39.493 90.881,39.111C90.977,38.205 90.977,37.275 90.881,36.32C90.786,35.366 90.607,34.495 90.345,33.708C90.082,32.921 89.748,32.277 89.343,31.776C88.937,31.275 88.448,31.024 87.876,31.024C86.969,31.024 86.098,31.275 85.263,31.776C84.428,32.277 83.653,32.98 82.937,33.887ZM78.357,46.483C78.357,47.342 78.404,48.189 78.5,49.024C78.595,49.859 78.786,50.598 79.072,51.243C79.359,51.887 79.74,52.412 80.218,52.817C80.695,53.223 81.315,53.425 82.078,53.425C82.937,53.425 83.724,53.223 84.44,52.817C85.156,52.412 85.8,51.887 86.373,51.243C86.945,50.598 87.458,49.859 87.911,49.024C88.365,48.189 88.758,47.318 89.092,46.412C88.758,46.459 88.436,46.495 88.126,46.519C87.816,46.543 87.47,46.555 87.088,46.555C85.275,46.555 83.713,46.018 82.4,44.944C81.088,43.871 80.074,42.499 79.359,40.829C79.072,41.831 78.834,42.809 78.643,43.764C78.452,44.718 78.357,45.624 78.357,46.483Z"></path>
            <path style="fill:rgb(27,42,48);fill-rule:nonzero;" d="M119.724,11.915C119.724,12.344 119.569,12.857 119.259,13.454C118.949,14.05 118.543,14.599 118.042,15.1C117.541,15.601 116.993,16.03 116.396,16.388C115.8,16.746 115.191,16.925 114.571,16.925C114.046,16.925 113.569,16.662 113.14,16.138C112.71,15.613 112.519,14.897 112.567,13.99C112.567,13.37 112.746,12.714 113.104,12.022C113.462,11.33 113.915,10.698 114.464,10.126C115.012,9.553 115.609,9.088 116.253,8.73C116.897,8.372 117.505,8.193 118.078,8.193C118.889,8.193 119.378,8.575 119.545,9.338C119.712,10.102 119.772,10.961 119.724,11.915ZM94.675,88.638C93.386,88.638 92.265,88.28 91.311,87.564C90.357,86.849 89.581,85.942 88.985,84.845C88.388,83.747 87.947,82.554 87.661,81.266C87.375,79.978 87.255,78.761 87.303,77.616C87.351,76.614 87.72,75.326 88.412,73.751C89.104,72.177 90.07,70.495 91.311,68.706C92.551,66.916 94.054,65.103 95.82,63.266C97.585,61.429 99.541,59.795 101.689,58.364C101.975,56.885 102.273,55.37 102.583,53.819C102.893,52.268 103.191,50.765 103.478,49.31C103.764,47.855 104.062,46.471 104.372,45.159C104.683,43.847 104.981,42.69 105.267,41.688C105.601,40.4 105.959,39.04 106.341,37.609C106.675,36.368 107.056,34.996 107.486,33.493C107.915,31.99 108.368,30.475 108.846,28.949C109.323,28.71 109.776,28.543 110.205,28.448C110.635,28.352 111.016,28.281 111.35,28.233C111.732,28.185 112.09,28.185 112.424,28.233C112.758,28.281 113.092,28.376 113.426,28.519C114.046,28.758 114.595,29.187 115.072,29.807C114.261,32.384 113.581,34.579 113.032,36.392C112.484,38.205 112.018,39.708 111.637,40.901C111.207,42.284 110.873,43.453 110.635,44.408C110.205,45.744 109.824,47.259 109.49,48.952C109.156,50.646 108.774,52.471 108.345,54.427C110.348,53.187 112.364,51.732 114.392,50.062C116.42,48.392 118.281,46.758 119.975,45.159C121.668,43.561 123.1,42.153 124.269,40.937C125.438,39.72 126.165,38.944 126.452,38.61C126.786,38.229 127.12,38.026 127.454,38.002C127.788,37.978 128.062,38.086 128.277,38.324C128.491,38.563 128.587,38.909 128.563,39.362C128.539,39.815 128.312,40.328 127.883,40.901C127.215,41.855 126.213,43.06 124.877,44.515C123.541,45.97 122.014,47.497 120.297,49.095C118.579,50.694 116.73,52.292 114.75,53.891C112.77,55.489 110.802,56.861 108.846,58.006C108.416,58.244 107.939,58.555 107.414,58.936C106.746,61.751 106.102,64.519 105.482,67.238C104.861,69.958 104.17,72.487 103.406,74.825C102.69,77.115 102.046,79.131 101.474,80.872C100.901,82.614 100.305,84.057 99.685,85.202C99.064,86.348 98.361,87.206 97.573,87.779C96.786,88.352 95.82,88.638 94.675,88.638ZM92.098,79.62C92.003,81.29 92.122,82.542 92.456,83.377C92.79,84.212 93.243,84.63 93.816,84.63C94.198,84.63 94.615,84.224 95.068,83.413C95.522,82.602 95.951,81.576 96.357,80.336C96.762,79.095 97.168,77.747 97.573,76.292C97.979,74.837 98.337,73.465 98.647,72.177C98.957,70.888 99.207,69.791 99.398,68.885C99.589,67.978 99.708,67.453 99.756,67.31C99.852,66.928 99.947,66.523 100.042,66.093C100.138,65.664 100.233,65.187 100.329,64.662C99.231,65.807 98.194,66.988 97.215,68.205C96.237,69.421 95.378,70.674 94.639,71.962C93.899,73.25 93.303,74.539 92.85,75.827C92.396,77.115 92.146,78.379 92.098,79.62Z"></path>
            <path style="fill:rgb(27,42,48);fill-rule:nonzero;" d="M138.046,13.99C137.903,14.515 137.629,15.028 137.223,15.529C136.817,16.03 136.364,16.436 135.863,16.746C135.362,17.056 134.849,17.259 134.324,17.354C133.8,17.45 133.37,17.354 133.036,17.068C132.034,16.305 131.509,15.482 131.462,14.599C131.414,13.716 131.629,12.881 132.106,12.094C132.583,11.307 133.179,10.639 133.895,10.09C134.611,9.541 135.231,9.219 135.756,9.124C136.281,9.028 136.722,9.136 137.08,9.446C137.438,9.756 137.712,10.161 137.903,10.662C138.094,11.163 138.201,11.724 138.225,12.344C138.249,12.965 138.189,13.513 138.046,13.99ZM128.169,29.235C128.408,28.949 128.861,28.71 129.529,28.519C130.197,28.328 130.889,28.173 131.605,28.054C132.32,27.935 132.976,27.863 133.573,27.839C134.169,27.815 134.515,27.827 134.611,27.875C134.658,27.923 134.539,28.424 134.253,29.378C133.967,30.332 133.609,31.454 133.179,32.742C132.75,34.03 132.297,35.354 131.819,36.714C131.342,38.074 130.984,39.183 130.746,40.042C130.507,40.901 130.221,41.867 129.887,42.94C129.553,44.014 129.255,45.064 128.992,46.09C128.73,47.115 128.551,48.082 128.456,48.988C128.36,49.895 128.432,50.587 128.67,51.064C128.909,51.636 129.171,52.03 129.458,52.245C129.744,52.459 130.054,52.567 130.388,52.567C131.342,52.567 132.547,52.042 134.002,50.992C135.458,49.942 136.937,48.69 138.44,47.235C139.943,45.779 141.338,44.3 142.626,42.797C143.915,41.294 144.869,40.09 145.489,39.183C145.871,38.706 146.265,38.396 146.67,38.253C147.076,38.109 147.41,38.133 147.672,38.324C147.935,38.515 148.078,38.825 148.102,39.255C148.125,39.684 147.97,40.185 147.636,40.758C146.873,42.094 145.752,43.68 144.273,45.517C142.793,47.354 141.219,49.119 139.549,50.813C137.879,52.507 136.245,53.95 134.646,55.143C133.048,56.336 131.748,56.956 130.746,57.004C129.935,57.052 129.136,56.92 128.348,56.61C127.561,56.3 126.845,55.871 126.201,55.322C125.557,54.773 125.02,54.129 124.591,53.39C124.161,52.65 123.923,51.875 123.875,51.064C123.732,49.871 123.732,48.237 123.875,46.161C124.018,44.086 124.281,41.962 124.662,39.791C125.044,37.62 125.533,35.557 126.13,33.601C126.726,31.644 127.406,30.189 128.169,29.235Z"></path>
        </g>
    </g>
</svg>
